<?xml version="1.0" encoding="UTF-8" standalone="no"?>
<!DOCTYPE svg PUBLIC "-//W3C//DTD SVG 1.1//EN" "http://www.w3.org/Graphics/SVG/1.1/DTD/svg11.dtd">
<svg width="100%" height="100%" viewBox="0 0 1080 1080" version="1.1" xmlns="http://www.w3.org/2000/svg" xmlns:xlink="http://www.w3.org/1999/xlink" xml:space="preserve" xmlns:serif="http://www.serif.com/" style="fill-rule:evenodd;clip-rule:evenodd;stroke-linecap:round;stroke-linejoin:round;stroke-miterlimit:1.5;">
    <g id="Body">
        <g id="Body1" serif:id="Body" transform="matrix(0.968758,0,0,0.82568,29.2056,185.635)">
            <path d="M128.937,476.559C57.958,423.293 10.865,329.994 10.865,223.891C10.865,58.476 125.327,-75.821 266.312,-75.821C285.152,-75.821 303.518,-73.423 321.2,-68.873C367.705,-143.22 442.716,-191.521 527.268,-191.521C611.819,-191.521 686.83,-143.22 733.335,-68.873C751.018,-73.423 769.383,-75.821 788.223,-75.821C929.208,-75.821 1043.67,58.476 1043.67,223.891C1043.67,329.994 996.577,423.293 925.598,476.559L925.598,884.895C925.598,975.953 862.589,1049.88 784.98,1049.88L269.556,1049.88C191.946,1049.88 128.937,975.953 128.937,884.895L128.937,476.559Z" style="fill:white;stroke:black;stroke-width:58.2px;"/>
        </g>
        <g id="Hat-line" serif:id="Hat line" transform="matrix(1.00733,0,0,1.00733,-3.9577,2.69667)">
            <path d="M158.2,925.582L921.839,925.582" style="fill:none;stroke:black;stroke-width:40px;"/>
        </g>
    </g>
    <g id="Face">
        <g id="Eye-left" serif:id="Eye left" transform="matrix(1.31515,0,0,1.31515,-74.2631,-145.953)">
            <circle cx="259.469" cy="499.158" r="45.956"/>
        </g>
        <g id="Eye-right" serif:id="Eye right" transform="matrix(1.31515,0,0,1.31515,471.782,-145.953)">
            <circle cx="259.469" cy="499.158" r="45.956"/>
        </g>
        <g id="Smile" transform="matrix(0.943797,0,0,1.00733,25.5212,2.69667)">
            <path d="M385.019,565.511C491.75,621.434 598.482,621.335 705.213,565.511" style="fill:none;stroke:black;stroke-width:41.28px;"/>
        </g>
        <g id="Chin-left" serif:id="Chin left" transform="matrix(1.00733,0,0,1.00733,-4.5108,3.08575)">
            <path d="M463.611,750.891L463.611,818.574C463.611,827.647 456.245,835.013 447.172,835.013C438.099,835.013 430.732,827.647 430.732,818.574L430.732,750.891C430.732,741.818 438.099,734.451 447.172,734.451C456.245,734.451 463.611,741.818 463.611,750.891Z"/>
        </g>
        <g id="Chin-right" serif:id="Chin right" transform="matrix(1.00733,0,0,1.00733,183.613,3.08575)">
            <path d="M463.611,750.891L463.611,818.574C463.611,827.647 456.245,835.013 447.172,835.013C438.099,835.013 430.732,827.647 430.732,818.574L430.732,750.891C430.732,741.818 438.099,734.451 447.172,734.451C456.245,734.451 463.611,741.818 463.611,750.891Z"/>
        </g>
        <g id="Chin-middle" serif:id="Chin middle" transform="matrix(1.00733,0,0,1.00733,89.5509,38.5146)">
            <path d="M463.611,750.891L463.611,818.574C463.611,827.647 456.245,835.013 447.172,835.013C438.099,835.013 430.732,827.647 430.732,818.574L430.732,750.891C430.732,741.818 438.099,734.451 447.172,734.451C456.245,734.451 463.611,741.818 463.611,750.891Z"/>
        </g>
    </g>
</svg>
